<svg width="32" height="32" viewBox="0 0 32 32" fill="none" xmlns="http://www.w3.org/2000/svg">
<g clip-path="url(#clip0_803_69)">
<path fill-rule="evenodd" clip-rule="evenodd" d="M15.5247 6C15.7821 6 16.0289 6.10536 16.2109 6.29289C16.3928 6.48043 16.495 6.73478 16.495 7V11C16.495 11.2652 16.3928 11.5196 16.2109 11.7071C16.0289 11.8946 15.7821 12 15.5247 12C15.2674 12 15.0206 11.8946 14.8386 11.7071C14.6567 11.5196 14.5545 11.2652 14.5545 11V7C14.5545 6.73478 14.6567 6.48043 14.8386 6.29289C15.0206 6.10536 15.2674 6 15.5247 6ZM23.2871 22V10C23.2871 7.87827 22.4693 5.84344 21.0136 4.34315C19.5578 2.84285 17.5835 2 15.5247 2C13.466 2 11.4916 2.84285 10.0359 4.34315C8.58019 5.84344 7.76237 7.87827 7.76237 10V22C7.76237 24.1217 8.58019 26.1566 10.0359 27.6569C11.4916 29.1571 13.466 30 15.5247 30C17.5835 30 19.5578 29.1571 21.0136 27.6569C22.4693 26.1566 23.2871 24.1217 23.2871 22ZM15.5247 0C12.9514 0 10.4834 1.05357 8.66371 2.92893C6.84405 4.8043 5.82178 7.34784 5.82178 10V22C5.82178 24.6522 6.84405 27.1957 8.66371 29.0711C10.4834 30.9464 12.9514 32 15.5247 32C18.0981 32 20.5661 30.9464 22.3858 29.0711C24.2054 27.1957 25.2277 24.6522 25.2277 22V10C25.2277 7.34784 24.2054 4.8043 22.3858 2.92893C20.5661 1.05357 18.0981 0 15.5247 0Z" fill="#C5A674"/>
</g>
<defs>
<clipPath id="clip0_803_69">
<rect width="31.0495" height="32" fill="white"/>
</clipPath>
</defs>
</svg>
