<svg width="136" height="35" viewBox="0 0 136 35" fill="none" xmlns="http://www.w3.org/2000/svg">
<g clip-path="url(#clip0_1032_5053)">
<path d="M38.2412 17.8076C38.2217 17.7573 38.1853 17.6818 38.1686 17.6539L38.121 17.5784C38.1043 17.5476 38.0819 17.5113 38.0539 17.4861L37.861 17.2569C37.0167 16.2336 36.0577 15.3138 35.0093 14.5253C33.9944 13.7677 32.8649 13.0855 31.6543 12.4956C30.4437 11.9084 29.2191 11.4387 28.0113 11.0977C26.7476 10.7342 25.4671 10.4714 24.1978 10.3204L23.8847 10.2869C23.3451 10.2309 22.7915 10.175 22.2631 10.1611L21.7878 10.1415L21.2818 10.1303C20.9463 10.1387 20.608 10.1666 20.2697 10.217C19.0815 10.3959 17.8681 10.8293 16.5568 11.545C15.542 12.0986 14.4963 12.8059 13.3612 13.7117C12.4722 14.4135 11.6082 15.1712 10.7779 15.9037L10.2802 16.3398C9.86924 16.6977 9.44707 17.0695 9.01931 17.3966C8.76489 17.584 8.51886 17.7545 8.32036 17.816L8.26164 17.8244C8.26164 17.8244 8.24207 17.8076 8.22809 17.7936L7.81152 17.3994C6.87771 16.597 5.72024 15.9736 4.37265 15.5486C3.14249 15.1516 1.84803 14.9195 0.525603 14.8664L-0.00280762 14.8441L0.0782712 15.3864C0.111821 15.6073 0.153758 15.8282 0.209675 16.0798C0.26 16.3063 0.315916 16.5299 0.38022 16.7536C0.506032 17.2037 0.659802 17.6483 0.835939 18.0788L0.891856 18.2046C0.967343 18.3752 1.04563 18.5513 1.1323 18.7163C1.21338 18.884 1.30843 19.0434 1.4007 19.1999L1.57683 19.4767C1.68307 19.6333 1.79211 19.7927 1.91513 19.938C1.95706 19.994 2.0018 20.0471 2.04933 20.1002C1.99621 20.1701 1.94588 20.24 1.89276 20.3127C1.72781 20.5419 1.58522 20.7516 1.45941 20.9529C1.31402 21.1794 1.18542 21.4114 1.06799 21.6323C0.956159 21.8532 0.838735 22.0936 0.738085 22.3425C0.682169 22.4655 0.637436 22.5913 0.592703 22.7199L0.559153 22.8122C0.522807 22.91 0.489257 23.0079 0.466891 23.1057L0.363445 23.5055L0.299141 23.8997C0.276775 24.0004 0.273979 24.101 0.271183 24.1989C0.271183 24.2408 0.271183 24.2856 0.265591 24.3331L0.257204 24.5567L0.276775 24.772C0.282366 24.8168 0.285162 24.8615 0.287958 24.9062C0.296345 25.0041 0.301937 25.1075 0.332691 25.2054L0.575928 26.1699L1.15187 26.019C1.5293 25.9183 1.87319 25.8065 2.16116 25.7086C2.49107 25.5996 2.81818 25.4794 3.1369 25.3508C3.45842 25.2249 3.77994 25.0852 4.10146 24.9398L4.56557 24.7105C4.66901 24.663 4.76966 24.6043 4.86752 24.5512C4.92064 24.5204 4.97655 24.4896 5.02967 24.4617C5.2114 24.3638 5.35958 24.28 5.49098 24.1933C5.54131 24.1597 5.59443 24.129 5.64475 24.0982C5.74261 24.0367 5.84326 23.9752 5.94111 23.9081L6.37167 23.6006C6.46673 23.5307 6.55619 23.4524 6.64845 23.3769C6.69598 23.3378 6.74351 23.2986 6.78825 23.2595C6.93363 23.1449 7.06503 23.0107 7.19084 22.8793L7.25794 22.8122C7.36418 22.7059 7.47322 22.5941 7.56548 22.4599C7.60183 22.4123 7.63818 22.3648 7.67452 22.3173C7.71646 22.2642 7.7584 22.2083 7.80033 22.1495C7.93174 22.2921 8.06873 22.4291 8.20852 22.5633C8.50488 22.8541 8.81801 23.1365 9.17028 23.4272C9.27373 23.5139 9.38277 23.5978 9.49181 23.6789L9.67633 23.8214C9.78816 23.9081 9.90279 23.9892 10.0202 24.0675C10.0817 24.1094 10.1432 24.1514 10.2019 24.1933C10.3473 24.2995 10.4983 24.3918 10.6521 24.4841L10.7751 24.5595C10.9484 24.6658 11.1246 24.7748 11.3119 24.8671L11.4992 24.9649C11.6278 25.032 11.7536 25.0991 11.8878 25.1606L12.4722 25.4151C12.6036 25.4766 12.7406 25.5241 12.8747 25.566C12.9446 25.5884 13.0117 25.6136 13.0816 25.6387C13.2829 25.7086 13.4898 25.7841 13.7023 25.8316L14.3314 25.991L15.2931 26.1392L16.3611 26.1895H16.5876L17.2726 28.2696L17.418 28.2976C17.5689 28.3283 17.6947 28.3171 17.7954 28.3311H17.8625C17.9128 28.3311 17.9659 28.3311 18.0135 28.3311L18.1365 28.3255C18.3574 28.3171 18.5754 28.3059 18.7935 28.2892C19.2297 28.2584 19.663 28.2193 20.0964 28.1773C20.8932 28.1019 21.6984 27.9984 22.4784 27.8978L22.5958 27.8838C22.8866 27.9593 23.1941 27.9956 23.5268 27.9956C23.8428 27.9956 24.1699 27.9649 24.5976 27.895C25.1903 27.7915 25.8138 27.621 26.51 27.3777C27.5864 26.9919 28.7075 26.4719 30.0327 25.7478C31.1538 25.1299 32.2554 24.4421 33.3122 23.7068C34.4249 22.9352 35.4175 22.1356 36.3457 21.2689C36.7986 20.8355 37.2767 20.3574 37.7072 19.7675C37.9113 19.4739 38.1238 19.1692 38.2552 18.7247L38.2636 18.6855C38.3167 18.4591 38.3782 18.2046 38.2357 17.7992M36.9244 18.3472C36.8825 18.4954 36.765 18.7163 36.5861 18.9679C36.3065 19.3649 35.9431 19.7731 35.4119 20.2931C34.4781 21.199 33.4492 22.0014 32.5657 22.664C31.5648 23.4077 30.5192 24.1066 29.4596 24.7357C28.2658 25.4402 27.181 25.9854 26.1437 26.4048C25.5147 26.662 24.9499 26.8465 24.4159 26.9695C23.7142 27.1233 23.1774 27.1485 22.7356 27.045L22.6378 27.0227L22.5595 27.0366C21.8941 27.1597 21.2259 27.2715 20.5577 27.3861L20.0069 27.4784C19.5819 27.5483 19.157 27.6182 18.732 27.6769C18.5195 27.7076 18.3098 27.7328 18.1029 27.758L17.9855 27.7691C17.9212 27.7747 17.8541 27.7831 17.7898 27.7831L17.6528 27.7887L17.0517 26.3461L16.965 26.1392L16.8616 25.868L16.3975 25.826L16.0536 25.7757L15.3518 25.6751L14.4628 25.4626L13.8729 25.2641C13.6911 25.211 13.5178 25.1355 13.3165 25.046C13.2494 25.0153 13.1823 24.9873 13.1124 24.9593C12.9894 24.909 12.8748 24.8587 12.7629 24.7972L12.2205 24.512C12.1087 24.4505 12.0025 24.3834 11.8934 24.3163C11.8291 24.2772 11.7648 24.2352 11.6949 24.1933C11.5272 24.0982 11.3622 23.9808 11.1917 23.8634L11.1078 23.8075C10.9708 23.7124 10.8338 23.6173 10.6996 23.5111C10.6437 23.4664 10.585 23.4216 10.5263 23.3769C10.4228 23.2986 10.3194 23.2203 10.2215 23.1337L10.0538 22.9883C9.95591 22.9044 9.85806 22.8205 9.763 22.7339C9.4946 22.4878 9.18147 22.1943 8.8935 21.8839C8.7565 21.7386 8.61951 21.5904 8.4881 21.4338C8.3567 21.2828 8.2253 21.1207 8.11906 20.9781L7.67732 20.3854L7.03148 21.4394C6.98675 21.5121 6.92804 21.5792 6.86653 21.6547C6.82739 21.6994 6.78824 21.7441 6.7519 21.7945C6.6876 21.8839 6.60372 21.965 6.51425 22.0489L6.43877 22.1216C6.32973 22.2278 6.22628 22.3313 6.10327 22.4207C6.05574 22.4571 6.00821 22.4934 5.96348 22.5326C5.88799 22.5941 5.8125 22.6556 5.73142 22.7115L5.33162 22.9827C5.24495 23.0414 5.15548 23.0917 5.06602 23.1449C5.01849 23.1728 4.96816 23.2008 4.92064 23.2315C4.78644 23.3154 4.64665 23.3881 4.50406 23.4608C4.45094 23.4887 4.39502 23.5167 4.3419 23.5447C4.25243 23.5922 4.16297 23.6369 4.07071 23.6789L3.59821 23.8969C3.31304 24.0199 3.01668 24.1458 2.72032 24.2576C2.42117 24.3722 2.11083 24.4813 1.79491 24.5819C1.69146 24.6155 1.58522 24.649 1.47898 24.6826C1.47898 24.677 1.47898 24.6714 1.47898 24.6658L1.465 24.5288L1.47339 24.3722C1.47898 24.3275 1.47898 24.2828 1.48177 24.238C1.48177 24.1793 1.48177 24.1206 1.49855 24.0563L1.54887 23.7404L1.63275 23.4077C1.64952 23.335 1.67469 23.2623 1.69985 23.1896L1.73899 23.0778C1.77254 22.9799 1.80609 22.882 1.85082 22.7814C2.02416 22.3397 2.26181 21.9119 2.47429 21.554C2.58612 21.3639 2.70914 21.171 2.84893 20.9641C2.99711 20.7488 3.1341 20.5643 3.25712 20.4133L3.58982 20.0023L3.204 19.6221C3.16206 19.583 3.12292 19.5438 3.08098 19.5047C2.97474 19.404 2.87689 19.3118 2.77904 19.1916C2.67839 19.0881 2.59172 18.9707 2.49945 18.8477L2.31213 18.5821C2.23105 18.4563 2.14718 18.3332 2.07449 18.1935C1.99061 18.0537 1.91792 17.9055 1.84244 17.7573L1.78093 17.6399C1.60479 17.2596 1.44543 16.8598 1.30843 16.4517C1.24133 16.2476 1.17703 16.0435 1.12111 15.8338C1.11273 15.8058 1.10713 15.7807 1.09875 15.7527C2.14159 15.789 3.20121 15.9456 4.17415 16.2112C4.77805 16.3706 5.35399 16.5886 5.89358 16.857C6.40801 17.0947 6.90847 17.4162 7.41451 17.8356L7.88421 18.2661C7.92055 18.2997 7.93733 18.3109 8.0212 18.3556C8.16938 18.4171 8.29799 18.4115 8.46015 18.3752C8.79844 18.2661 9.04168 18.0872 9.27932 17.9139L9.37158 17.8468C9.82171 17.5057 10.2495 17.1366 10.6633 16.7816L10.8506 16.6194C11.7005 15.8813 12.7126 15.0202 13.7778 14.2318C14.9157 13.3958 15.953 12.7528 16.9455 12.2635C18.1644 11.6652 19.3275 11.3073 20.4039 11.1955C20.9631 11.134 21.6117 11.1703 22.21 11.2179C22.7188 11.2458 23.1913 11.3101 23.6918 11.3772L24.0497 11.4248C25.1931 11.5981 26.3758 11.8693 27.6619 12.2579C28.797 12.599 29.9488 13.0659 31.0811 13.6391C32.2023 14.2094 33.2479 14.8664 34.1845 15.5905C35.1966 16.3818 36.0745 17.2317 36.8014 18.118L36.9496 18.2941C36.9496 18.2941 36.944 18.3193 36.9384 18.3388L36.9244 18.3472ZM27.6031 20.3211L27.2984 21.6547C27.1334 22.4515 27.0048 23.1253 26.9126 23.8103C26.8595 24.143 26.8119 24.498 26.7672 24.8978C26.7308 25.1914 26.7169 25.3284 26.6917 25.622C26.6917 25.622 28.1539 24.9062 28.1595 24.8559C28.2042 24.4701 28.2238 24.3359 28.2769 24.0144C28.3552 23.472 28.4559 22.9212 28.5565 22.39L28.9312 20.5727C28.9843 20.3211 29.0346 20.0806 29.0793 19.8122C29.2079 19.0881 29.2667 18.3444 29.2611 17.5392C29.2499 16.776 29.166 16.0155 29.0094 15.2802C28.8333 14.4443 28.6684 13.8739 28.2853 13.0547L26.7868 12.5906L26.8622 12.7444C27.3096 13.6474 27.6255 14.5812 27.7933 15.5234C27.9107 16.1777 27.9666 16.857 27.9554 17.5448C27.947 18.2745 27.8827 18.9539 27.7653 19.5606C27.7234 19.8011 27.6619 20.0667 27.6059 20.3183L27.6031 20.3211ZM21.3908 6.13227L20.9826 5.93097C20.9826 5.93097 20.9798 5.91699 20.977 5.9114C20.9631 5.85269 20.9547 5.78 20.9547 5.7101C20.9435 5.14535 21.0693 4.47435 21.3293 3.72227C21.6033 2.9646 21.9276 2.37469 22.319 1.91617L22.4029 1.81832L22.1373 1.56669L22.0423 1.65896C21.5558 2.13425 21.156 2.74373 20.8149 3.52097C20.5772 4.08853 20.2949 4.85179 20.2473 5.7101C20.2445 5.83032 20.2893 6.17141 20.3144 6.2441L20.334 6.28604L21.0218 6.80607C21.2734 6.95145 21.6005 7.14716 21.9164 7.35964C22.5036 7.74826 23.0655 8.17322 23.5855 8.62615C24.0804 9.0567 24.3404 9.28316 24.7346 9.7305L26.4429 10.0716C25.8278 9.35586 24.9555 8.51711 24.1755 7.91042C23.6051 7.46308 22.9928 7.04651 22.3526 6.66627C22.0758 6.50132 21.7794 6.33637 21.3852 6.13227H21.3908ZM27.9331 30.3105C27.8911 29.6396 27.8827 28.935 27.9023 28.2137C27.9079 28.0347 27.9163 27.8558 27.9275 27.6797L27.9442 27.3246L26.5603 27.9341L26.5547 28.1941C26.5463 28.9518 26.5715 29.6955 26.6274 30.4028C26.6637 30.8585 26.7225 31.454 26.8315 32.0887C26.5911 32.1782 26.3478 32.2676 26.1046 32.3515C25.702 32.4885 25.2826 32.6227 24.8604 32.7485C23.9043 33.0281 23.0991 33.2266 22.3302 33.3776C21.4076 33.5593 20.5716 33.6683 19.7665 33.7103C19.5092 33.7215 19.252 33.7298 18.9948 33.7298C18.3434 33.7298 17.7646 33.6823 17.2334 33.5845C16.7833 33.4978 16.3947 33.3888 16.0368 33.2462C15.6454 33.0924 15.2792 32.8883 14.9772 32.6618C14.857 32.5724 14.7396 32.4717 14.6138 32.3683L14.4628 32.2425C14.2699 32.0915 14.0937 31.9573 13.9064 31.8315C13.5262 31.5715 13.1236 31.3366 12.7098 31.1325C11.8906 30.7327 11.0127 30.442 10.1013 30.2686C9.6959 30.1903 9.25136 30.1372 8.73693 30.1065C8.41821 30.0897 8.09949 30.0925 7.77517 30.112L9.19824 24.2492L8.59714 23.7879L8.54682 24.0367C8.12465 26.1056 7.63817 28.236 7.10138 30.3637L6.99793 30.7775L7.42569 30.7299C7.80592 30.688 8.26164 30.6824 8.70059 30.7104C9.11157 30.7355 9.54213 30.797 9.97828 30.8865C10.8394 31.0654 11.6474 31.3646 12.3827 31.7672C12.7545 31.9685 13.118 32.2033 13.4591 32.4605C13.6352 32.5891 13.8058 32.7317 13.9539 32.8575L14.0937 32.9834C14.2112 33.0868 14.3286 33.1958 14.46 33.3021C15.1394 33.8584 16.0061 34.2638 17.0377 34.5099C17.8178 34.6888 18.6369 34.7755 19.5344 34.7755C20.4319 34.7755 21.3852 34.6888 22.5343 34.5043C23.4597 34.3505 24.3544 34.152 25.1931 33.92C25.6237 33.8025 26.0626 33.6711 26.496 33.5313C27.0216 33.3608 27.4102 33.2238 27.7905 33.0756L28.2797 32.8855L28.1679 32.3431C28.0561 31.7895 27.9778 31.1269 27.9275 30.3133L27.9331 30.3105ZM71.0586 13.5748L75.2523 24.7916C75.6326 25.7981 75.9066 26.4244 76.832 26.6424L77.6484 26.8353V27.6266C77.6484 27.6266 76.3148 27.5455 74.8693 27.5455C72.7445 27.5455 71.5199 27.6266 71.5199 27.6266V26.8353L72.2273 26.6424C72.7724 26.5054 72.9877 26.1811 72.9877 25.717C72.9877 25.4179 72.9066 25.0907 72.7417 24.6546L71.9784 22.6668H67.5135L66.6971 25.0348C66.616 25.2809 66.535 25.4961 66.535 25.7142C66.535 26.1783 66.8341 26.5306 67.4045 26.6396L68.3578 26.8325V27.6238C68.3578 27.6238 67.1584 27.5427 65.5536 27.5427C64.1641 27.5427 63.2107 27.6238 63.2107 27.6238V26.8325L63.809 26.6396C64.6254 26.3684 65.0895 25.8764 65.4138 25.0069L69.6607 13.681L71.0502 13.572L71.0586 13.5748ZM84.6435 25.1746C84.6435 26.1811 84.9175 26.5641 85.5969 26.6983L86.5223 26.8885V27.6238C86.5223 27.6238 85.1328 27.5399 83.3099 27.5399C81.2941 27.5399 80.3687 27.6238 80.3687 27.6238V26.8885L80.8859 26.7515C81.7554 26.5334 82.2195 26.0693 82.2195 24.7916V16.351C82.2195 15.3445 81.9483 14.9615 81.2662 14.8273L80.3407 14.6372V13.9019C80.3407 13.9019 81.7303 13.9829 83.5531 13.9829C84.4506 13.9829 86.2204 13.9019 86.5754 13.9019C89.4076 13.9019 91.1494 15.3166 91.1494 17.4414C91.1494 20.4105 88.3452 20.925 87.8559 21.0088C88.2361 21.2521 88.5101 21.5792 88.8904 22.2334L90.3889 24.8196C91.1494 26.128 91.9406 27.1065 93.9816 27.1065V27.6238C93.9816 27.6238 93.2463 28.0599 92.1307 28.0599C90.3078 28.0599 88.8372 27.2435 88.074 25.4989L86.8494 22.6947C86.4943 21.8504 86.0051 21.4142 85.3257 21.4142C84.8616 21.4142 84.6463 21.5764 84.6463 21.5764V25.1718L84.6435 25.1746ZM129.402 13.5748L133.596 24.7916C133.976 25.7981 134.25 26.4244 135.175 26.6424L135.992 26.8353V27.6266C135.992 27.6266 134.658 27.5455 133.215 27.5455C131.091 27.5455 129.866 27.6266 129.866 27.6266V26.8353L130.573 26.6424C131.118 26.5054 131.337 26.1811 131.337 25.717C131.337 25.4179 131.255 25.0907 131.093 24.6546L130.33 22.6668H125.865L125.049 25.0348C124.968 25.2809 124.884 25.4961 124.884 25.7142C124.884 26.1783 125.183 26.5306 125.756 26.6396L126.709 26.8325V27.6238C126.709 27.6238 125.513 27.5427 123.905 27.5427C122.516 27.5427 121.565 27.6238 121.565 27.6238V26.8325L122.163 26.6396C122.98 26.3684 123.444 25.8764 123.771 25.0069L128.018 13.681L129.405 13.572L129.402 13.5748ZM126.217 21.6603H129.947L128.068 16.2699L126.217 21.6603ZM115.001 13.8991C115.001 13.8991 116.253 13.9801 117.78 13.9801C119.06 13.9801 120.12 13.8991 120.12 13.8991V14.6623L119.577 14.8245C118.677 15.0957 118.269 15.5877 118.269 17.0304V27.702L117.506 27.8111L108.059 17.6818V24.9258C108.059 26.2063 108.414 26.5054 109.448 26.6956L110.401 26.8857V27.621C110.401 27.621 108.414 27.5399 107.379 27.5399C106.426 27.5399 105.064 27.621 105.064 27.621V26.8857L105.581 26.7487C106.507 26.5026 106.915 25.9323 106.915 24.4896V16.5942C106.915 15.3697 106.616 15.0426 105.799 14.8245L105.036 14.6344V13.8991C106.479 13.955 107.678 13.9801 108.629 13.9801C108.738 14.4443 108.9 14.8804 109.554 15.5877L117.178 23.7012V16.6222C117.178 15.3976 116.689 14.9894 115.898 14.8245L115.001 14.6344V13.8991ZM97.9013 16.351C97.9013 15.3445 97.6301 14.9615 96.9479 14.8273L96.0225 14.6372V13.9019C96.0225 13.9019 97.412 13.9829 99.2349 13.9829C101.251 13.9829 102.176 13.9019 102.176 13.9019V14.6372L101.659 14.7742C100.787 14.9922 100.325 15.4535 100.325 16.734V25.1746C100.325 26.1811 100.596 26.5641 101.279 26.7011L102.204 26.8913V27.6266C102.204 27.6266 100.815 27.5455 98.9917 27.5455C96.9759 27.5455 96.0505 27.6266 96.0505 27.6266V26.8913L96.5677 26.7543C97.44 26.5362 97.9013 26.0749 97.9013 24.7944V16.3538V16.351ZM84.6435 15.0174V20.8439C85.0237 20.5447 85.513 20.4077 86.033 20.4077C86.7404 20.4077 87.1765 20.6538 87.1765 20.6538C87.9677 19.8626 88.457 19.1021 88.457 17.6315C88.457 15.9708 87.3946 14.8273 85.9268 14.8273C85.2726 14.8273 84.9455 14.9084 84.6463 15.0174H84.6435ZM67.8714 21.6603H71.601L69.7222 16.2699L67.8714 21.6603ZM57.1718 25.1718C57.1718 26.1783 57.5268 26.5613 58.3153 26.6956L59.4056 26.8857V27.621C59.4056 27.621 57.6638 27.5371 55.8382 27.5371C53.8224 27.5371 52.8969 27.621 52.8969 27.621V26.8857L53.4142 26.7487C54.2865 26.5306 54.7478 26.0665 54.7478 24.7888V16.3482C54.7478 15.3417 54.4766 14.9587 53.7944 14.8245L52.869 14.6344V13.8991C52.869 13.8991 54.2585 13.9801 56.0814 13.9801C58.6396 13.9801 62.3971 13.8991 62.3971 13.8991V17.0052H61.9079C61.4438 15.5067 60.1102 14.8273 58.4215 14.8273C57.9322 14.8273 57.443 14.9084 57.169 15.0174V20.4077H58.6396C59.5929 20.4077 60.1633 19.8905 60.3003 18.8812L60.4093 17.9278H61.0356C61.0356 17.9278 60.9545 19.1524 60.9545 20.8131C60.9545 21.7945 61.0356 22.8848 61.0356 22.8848H60.4093L60.3003 22.3956C60.1102 21.7973 59.811 21.28 58.8828 21.28H57.169V25.1746L57.1718 25.1718ZM11.3594 14.6875C11.4321 14.1926 11.4992 13.6866 11.5216 13.1638C11.53 12.8646 11.5467 12.6437 11.5971 12.4005C11.667 12.1265 11.748 11.8917 11.8487 11.6876C12.0556 11.2542 12.3519 10.7985 12.7266 10.34C13.3556 9.58232 14.1468 8.85261 15.2176 8.04462C15.7489 7.6504 16.199 7.33448 16.6323 7.0521C17.1579 6.70821 17.6528 6.40906 18.1057 6.16023L18.567 5.90581L18.3378 5.4473C17.9743 4.71479 17.5997 3.98788 17.225 3.25817L16.7833 2.39705C16.8029 2.34114 16.8252 2.28802 16.8532 2.23489C16.9063 2.12865 16.9678 2.028 17.0433 1.93574C17.1887 1.75122 17.3704 1.61143 17.5773 1.52476C17.7618 1.44647 17.9799 1.40733 18.2427 1.40733H18.2819C18.4356 1.41572 18.5615 1.4297 18.6873 1.45486C18.746 1.46604 18.8019 1.47723 18.8718 1.4968L18.9305 1.51078C18.9836 1.52476 19.0451 1.54153 19.1318 1.55271C19.3275 1.57228 19.4841 1.55551 19.663 1.53314C19.8196 1.51078 19.9733 1.48002 20.1271 1.44368C20.3955 1.38217 20.6751 1.30389 21.0078 1.20324C21.6201 1.01592 22.21 0.79225 22.7049 0.593747L22.8251 0.546218L22.7049 0.202332L22.5791 0.238677C22.087 0.38406 21.5586 0.521055 20.8652 0.683213C20.5353 0.7587 20.2641 0.811821 20.0097 0.850962C19.8699 0.873329 19.7301 0.890104 19.5931 0.901287C19.4673 0.909675 19.3359 0.912471 19.2352 0.8929C19.2101 0.887308 19.1653 0.870533 19.1178 0.856554L19.0703 0.839779C19.0004 0.811821 18.9165 0.789454 18.8354 0.767088C18.6873 0.72515 18.5307 0.691601 18.3406 0.666438C17.9883 0.624501 17.6165 0.658051 17.2894 0.769884C16.9455 0.890104 16.6323 1.09699 16.3835 1.37658C16.2633 1.51078 16.1542 1.65616 16.0648 1.80993C15.9753 1.9665 15.9026 2.11188 15.8383 2.31597L15.7908 2.46974L16.2857 3.56011C16.5736 4.19197 16.8588 4.82383 17.1496 5.45289C16.7554 5.67096 16.3863 5.88624 16.0284 6.10711C15.4749 6.451 14.9828 6.7809 14.5271 7.1164C13.3724 7.96913 12.5085 8.74916 11.8095 9.57393C11.3482 10.1191 11.0043 10.6447 10.7583 11.1787C10.6241 11.4583 10.5123 11.7798 10.4256 12.1349C10.3669 12.4005 10.3333 12.7332 10.325 13.1218C10.2886 13.9326 10.1768 14.9643 10.0566 15.7835L11.3538 14.6875H11.3594Z" fill="url(#paint0_linear_1032_5053)"/>
</g>
<defs>
<linearGradient id="paint0_linear_1032_5053" x1="-1.17946e-05" y1="17.4973" x2="136" y2="17.4973" gradientUnits="userSpaceOnUse">
<stop stop-color="#B18C58"/>
<stop offset="1" stop-color="#E0CB9C"/>
</linearGradient>
<clipPath id="clip0_1032_5053">
<rect width="136" height="34.5815" fill="white" transform="translate(0 0.205261)"/>
</clipPath>
</defs>
</svg>
