<svg width="170" height="24" viewBox="0 0 170 24" fill="none" xmlns="http://www.w3.org/2000/svg">
<path d="M169.828 15.3145C169.341 13.6099 168.52 12.1218 167.107 11.0259C166.285 10.3495 165.388 9.75423 164.271 9.56483C161.96 9.17249 160.059 9.95716 158.302 11.3371C157.968 11.6212 157.71 12.0406 157.739 12.5141C157.739 12.7576 157.854 12.947 158.073 12.947L160.088 11.6753C160.203 11.6077 160.384 11.4994 160.422 11.3912C160.613 11.1071 160.909 10.9989 161.205 10.8906C161.988 10.566 162.81 10.4983 163.631 10.5389C165.646 10.6471 167.021 11.6753 168.071 13.2311C168.634 14.0428 168.892 14.9763 169.265 15.8557C169.188 16.0722 169.15 16.2751 169.074 16.4645C168.816 17.3574 168.214 17.9527 167.393 18.345C165.646 19.1567 163.85 19.4138 161.95 19.3055C160.909 19.2379 159.897 19.0214 158.856 18.805C156.097 18.3856 153.709 17.1409 151.551 15.5039C149.727 14.1511 148.161 12.5547 146.557 10.9583C145.144 9.53777 143.683 8.11725 142.079 6.84555C140.627 5.66855 139.138 4.57272 137.419 3.72041C136.263 3.1522 135.108 2.62458 133.762 2.4487C131.785 2.20519 129.77 2.12401 127.755 2.27283C127.517 2.29989 127.278 2.34047 127.039 2.39459C125.425 0.96054 123.439 0.324689 121.358 0.135286C118.283 -0.148817 115.208 0.135286 112.229 0.987598C111.532 1.21759 110.739 1.3664 109.994 1.59639C106.576 2.5434 103.644 4.38331 100.971 6.60203L97.1987 9.99775C96.2056 10.9448 93.5797 14.0158 91.202 16.0451L88.471 18.2232C87.3824 19.0891 86.2174 19.8873 84.9856 20.5908C83.7538 19.8873 82.5888 19.0891 81.5002 18.2232L78.7692 16.0451C76.3915 14.0158 73.7656 10.9448 72.7725 9.99775L69.0006 6.60203C66.3174 4.38331 63.3954 2.5434 59.9769 1.59639C59.2321 1.3664 58.4395 1.21759 57.7424 0.987598C54.7632 0.135286 51.6884 -0.148817 48.6136 0.135286C46.532 0.324689 44.5553 0.96054 42.9416 2.39459C42.7028 2.354 42.4832 2.31342 42.254 2.28636C40.2392 2.13754 38.2244 2.21871 36.2477 2.46223C34.9013 2.63811 33.7459 3.16573 32.5905 3.73393C30.8717 4.58625 29.382 5.68207 27.9306 6.85908C26.3264 8.13078 24.8749 9.5513 23.4521 10.9718C21.8479 12.5682 20.2819 14.1646 18.458 15.5175C16.2904 17.1545 13.9127 18.3856 11.1531 18.8185C10.1123 19.035 9.10007 19.2379 8.05923 19.3191C6.15899 19.4273 4.36379 19.1838 2.61633 18.3585C1.79512 17.9662 1.20309 17.3709 0.935716 16.478C0.859324 16.3021 0.821128 16.0857 0.744737 15.8692C1.11715 14.9763 1.37497 14.0564 1.93836 13.2446C2.97919 11.6888 4.36379 10.6471 6.37862 10.5524C7.19983 10.5118 8.02104 10.593 8.80405 10.9042C9.10007 11.0124 9.39609 11.1206 9.58707 11.4047C9.62526 11.513 9.80669 11.6212 9.92128 11.6888L11.9361 12.9605C12.1557 12.9605 12.2703 12.7847 12.2703 12.5276C12.3085 12.0676 12.0507 11.6347 11.7069 11.3506C9.94993 9.97069 8.04969 9.18602 5.73884 9.57835C4.62161 9.75423 3.72401 10.363 2.9028 11.0395C1.48956 12.1353 0.668345 13.637 0.181348 15.3281C-0.0382774 15.9639 -0.0764733 16.5998 0.219544 17.2492C0.410523 17.6821 0.668345 18.0609 1.04075 18.3856C2.27257 19.522 3.8004 20.0225 5.40463 20.1578C7.71547 20.3743 10.0263 20.1578 12.2703 19.522C12.7955 19.3461 13.3875 19.2379 13.9509 19.062C16.5292 18.3585 18.7254 16.9651 20.7402 15.301L23.5763 12.7441C24.3211 12.0406 26.2977 9.72717 28.0834 8.19842L30.1364 6.56144C31.7406 5.28974 33.5645 4.22097 35.5411 3.4363C37.4414 2.69222 39.418 2.65163 41.3564 2.97632C41.6429 3.03044 41.9294 3.08455 42.2063 3.13867C42.0153 3.40924 41.853 3.69335 41.7193 3.99098C41.3182 4.84329 41.3755 5.6956 41.6715 6.53439C42.3209 8.79369 43.4095 10.7824 45.2906 12.2435C46.3792 13.1364 47.5728 13.9481 49.0624 14.1781C52.1372 14.6922 54.6677 13.664 56.9976 11.8241C57.4464 11.4453 57.7902 10.8771 57.7424 10.2683C57.7424 9.94363 57.5897 9.70011 57.2936 9.70011L54.6104 11.4047C54.4576 11.4994 54.2189 11.6483 54.1616 11.7835C53.9133 12.1623 53.5122 12.2976 53.1207 12.4464C52.0799 12.8658 50.9913 12.9605 49.8932 12.92C47.2099 12.7847 45.3765 11.4047 43.9919 9.33484C43.2471 8.25254 42.9034 7.02142 42.4068 5.84442C42.5023 5.56032 42.5596 5.27621 42.6551 5.04622C42.8365 4.43743 43.1325 3.93687 43.524 3.51747C44.1638 3.73393 44.7845 4.01804 45.3765 4.41037C47.2386 5.61443 48.4322 7.27847 49.0338 9.30778C49.1866 9.72717 48.9956 10.1195 48.8524 10.5118C49.0051 10.6471 49.1102 10.7959 49.263 10.8636C49.855 11.1071 50.3038 10.8636 50.3038 10.2548C50.4184 9.61894 50.2274 9.05073 49.7404 8.61781C49.4444 8.33371 49.2152 8.04961 49.0338 7.69786C48.6614 7.06201 48.3272 6.45321 47.9166 5.81736C47.8784 5.70913 47.802 5.57384 47.6969 5.49267C46.6561 4.46449 45.5293 3.54453 44.0397 3.19278C44.0015 3.19278 43.9633 3.16573 43.9346 3.1522C44.2211 2.92221 44.5362 2.70575 44.8991 2.52988C47.229 1.44758 49.6067 1.10936 52.1372 1.25817C53.5218 1.35287 54.8682 1.63698 56.2528 1.92108C59.9196 2.48929 63.0994 4.1398 65.9736 6.31793C68.4086 8.11725 70.4903 10.2413 72.6197 12.3653C74.5008 14.2593 76.4393 16.1398 78.5687 17.8444C80.1538 19.1161 81.7772 20.3202 83.5628 21.3348C82.818 21.7136 82.0541 22.0654 81.2711 22.3766C78.7406 23.3642 76.1146 23.4183 73.5364 22.9853C71.598 22.6607 69.8123 22.1871 68.1794 21.0913C65.6967 19.4814 64.1116 17.2627 63.319 14.5705C63.1185 14.0023 63.3668 13.4882 63.5673 12.9605C63.3668 12.7711 63.2235 12.5817 63.023 12.487C62.2304 12.1623 61.6384 12.487 61.6384 13.2852C61.4952 14.1375 61.7339 14.8952 62.3832 15.4498C62.7747 15.8286 63.0803 16.2074 63.3286 16.6809C63.8251 17.5333 64.2739 18.3315 64.8182 19.1838C64.866 19.3191 64.971 19.5085 65.1142 19.6032C66.4988 20.9696 67.9885 22.2007 69.9746 22.6742C70.2707 22.7689 70.5667 22.8636 70.5667 23.283C70.6144 23.4318 70.8627 23.5671 70.9677 23.6618C71.4643 23.7565 71.9131 23.8512 72.3619 23.8918C75.0451 24.0812 77.7188 23.9865 80.3448 23.6618C82.0445 23.4318 83.5246 22.7824 84.9951 22.0654C86.4657 22.7824 87.9362 23.4453 89.6455 23.6618C92.2714 23.9865 94.9547 24.0812 97.6284 23.8918C98.0772 23.8512 98.526 23.7565 99.0226 23.6618C99.118 23.5671 99.3663 23.4318 99.4236 23.283C99.4236 22.8636 99.7196 22.7689 100.016 22.6742C102.002 22.2007 103.491 20.9696 104.876 19.6032C105.029 19.5085 105.124 19.3191 105.172 19.1838C105.716 18.3315 106.165 17.5333 106.662 16.6809C106.91 16.2074 107.206 15.8286 107.607 15.4498C108.256 14.8816 108.505 14.124 108.352 13.2852C108.352 12.487 107.76 12.1488 106.967 12.487C106.767 12.5817 106.624 12.7711 106.423 12.9605C106.624 13.4746 106.872 14.0023 106.671 14.5705C105.879 17.2627 104.294 19.4814 101.811 21.0913C100.178 22.1736 98.3828 22.6471 96.4539 22.9853C93.8757 23.4047 91.2497 23.3642 88.7192 22.3766C87.9362 22.0654 87.1723 21.7136 86.4275 21.3348C88.2131 20.3202 89.8365 19.1161 91.4216 17.8444C93.551 16.1398 95.4894 14.2593 97.3706 12.3653C99.5 10.2413 101.591 8.11725 104.017 6.31793C106.891 4.1398 110.071 2.48929 113.737 1.92108C115.122 1.63698 116.468 1.35287 117.853 1.25817C120.384 1.12289 122.761 1.44758 125.091 2.52988C125.454 2.70575 125.769 2.92221 126.065 3.16573C126.037 3.16573 126.017 3.17926 125.989 3.19278C124.499 3.54453 123.382 4.46449 122.332 5.49267C122.217 5.56032 122.141 5.70913 122.112 5.81736C121.701 6.45321 121.367 7.06201 120.995 7.69786C120.804 8.04961 120.584 8.33371 120.288 8.61781C119.801 9.0372 119.62 9.60541 119.725 10.2548C119.725 10.8636 120.173 11.1071 120.766 10.8636C120.918 10.7959 121.023 10.6471 121.176 10.5118C121.023 10.1195 120.842 9.72717 120.995 9.30778C121.587 7.27847 122.78 5.61443 124.652 4.41037C125.234 4.01804 125.846 3.74746 126.476 3.531C126.867 3.95039 127.154 4.45096 127.335 5.04622C127.431 5.27621 127.488 5.56032 127.583 5.84442C127.087 7.02142 126.743 8.25254 125.998 9.33484C124.614 11.4047 122.771 12.7847 120.097 12.92C119.009 12.9605 117.91 12.8658 116.87 12.4464C116.478 12.3112 116.077 12.1623 115.829 11.7835C115.781 11.6483 115.533 11.4994 115.38 11.4047L112.697 9.70011C112.401 9.70011 112.248 9.94363 112.248 10.2683C112.2 10.8771 112.544 11.4453 112.993 11.8241C115.323 13.664 117.853 14.7057 120.928 14.1781C122.417 13.9481 123.611 13.1364 124.7 12.2435C126.581 10.7824 127.679 8.79369 128.319 6.53439C128.615 5.68207 128.663 4.82976 128.271 3.99098C128.137 3.69335 127.985 3.40924 127.794 3.1522C128.08 3.08455 128.376 3.03044 128.682 2.97632C130.62 2.65163 132.597 2.69222 134.497 3.4363C136.474 4.22097 138.297 5.27621 139.902 6.56144L141.955 8.19842C143.74 9.72717 145.717 12.0271 146.462 12.7441L149.298 15.301C151.313 16.9651 153.509 18.3585 156.087 19.062C156.65 19.2379 157.243 19.3461 157.768 19.522C160.002 20.1578 162.313 20.3743 164.633 20.1578C166.238 20.009 167.765 19.522 168.997 18.3856C169.37 18.0609 169.628 17.6821 169.818 17.2492C170.115 16.6133 170.076 15.9775 169.857 15.3281L169.828 15.3145Z" fill="url(#paint0_linear_1292_8524)"/>
<defs>
<linearGradient id="paint0_linear_1292_8524" x1="0.00708008" y1="12.011" x2="170.031" y2="12.011" gradientUnits="userSpaceOnUse">
<stop stop-color="#B18C58"/>
<stop offset="1" stop-color="#E0CB9C"/>
</linearGradient>
</defs>
</svg>
